<?xml version="1.0" standalone="no"?>
<!DOCTYPE svg PUBLIC "-//W3C//DTD SVG 20010904//EN"
 "http://www.w3.org/TR/2001/REC-SVG-20010904/DTD/svg10.dtd">
<svg version="1.0" xmlns="http://www.w3.org/2000/svg"
 width="700.000000pt" height="700.000000pt" viewBox="0 0 700.000000 700.000000"
 preserveAspectRatio="xMidYMid meet">
<metadata>
Created by potrace 1.11, written by Peter Selinger 2001-2013
</metadata>
<g transform="translate(0.000000,700.000000) scale(0.100000,-0.100000)"
fill="#000000" stroke="none">
<path d="M3417 6834 c-1 -1 -56 -4 -123 -7 -66 -4 -154 -11 -195 -17 -41 -6
-90 -13 -109 -16 -155 -20 -512 -113 -635 -164 -11 -4 -38 -15 -60 -23 -135
-50 -368 -166 -515 -255 -94 -58 -257 -167 -270 -182 -3 -3 -23 -18 -45 -34
-111 -82 -399 -355 -478 -456 -21 -26 -46 -56 -56 -67 -83 -90 -240 -326 -343
-513 -126 -230 -262 -576 -303 -770 -2 -8 -12 -53 -23 -100 -11 -47 -23 -105
-27 -130 -4 -24 -8 -47 -10 -50 -2 -3 -6 -34 -10 -70 -3 -36 -8 -72 -10 -80
-18 -69 -26 -486 -13 -650 7 -78 31 -265 42 -316 2 -12 7 -38 10 -59 25 -152
110 -433 193 -633 334 -806 996 -1471 1783 -1790 58 -24 114 -47 125 -52 17
-8 162 -55 250 -80 60 -18 182 -49 211 -54 17 -3 66 -13 110 -21 43 -8 102
-17 129 -20 28 -3 60 -7 72 -9 102 -20 477 -27 658 -13 507 40 1021 208 1458
474 145 88 389 270 487 363 179 168 274 270 380 403 8 11 20 24 25 31 16 17
108 145 145 201 150 225 278 485 378 765 39 109 108 376 126 490 3 19 8 46 10
60 23 131 39 343 39 515 0 122 -10 332 -18 374 -2 13 -7 49 -10 80 -4 31 -8
63 -11 72 -3 9 -7 34 -9 55 -6 48 -28 143 -66 289 -110 428 -333 865 -626
1229 -96 120 -301 332 -403 417 -35 30 -71 60 -79 68 -21 19 -211 161 -216
161 -2 0 -32 20 -67 44 -187 130 -512 287 -763 369 -102 34 -279 83 -329 93
-11 2 -32 6 -46 9 -58 12 -259 44 -305 49 -116 13 -449 27 -458 20z m953
-2003 c9 -2 6 -2198 -2 -2207 -6 -6 -205 -8 -343 -5 -19 1 -20 8 -19 128 l0
128 -97 -96 c-108 -109 -191 -156 -315 -182 -64 -13 -204 -15 -263 -2 -408 82
-657 470 -607 942 40 377 301 667 637 709 235 28 399 -28 571 -196 39 -39 71
-70 72 -70 1 0 1 188 1 418 0 229 1 422 2 427 3 8 328 13 363 6z m1110 -545
c77 -9 160 -27 229 -48 60 -18 246 -102 280 -126 11 -8 -5 -45 -83 -191 -54
-100 -99 -181 -101 -181 -2 0 -20 9 -39 21 -58 34 -203 88 -285 105 -195 41
-290 23 -291 -56 0 -59 47 -84 320 -167 125 -38 263 -92 268 -105 2 -4 8 -8
14 -8 14 0 88 -53 127 -92 76 -75 113 -169 115 -292 2 -176 -35 -277 -139
-382 -126 -127 -309 -184 -572 -178 -70 2 -139 6 -153 9 -14 3 -52 10 -85 16
-143 24 -345 110 -473 200 l-23 16 102 164 c56 90 105 168 109 172 4 5 27 -3
50 -18 86 -54 241 -117 320 -130 19 -3 42 -8 50 -10 75 -21 208 -22 248 -1 44
23 60 90 28 121 -28 29 -149 72 -351 125 -104 28 -245 92 -310 142 -58 45
-112 115 -137 178 -18 44 -22 76 -23 165 0 134 6 169 47 254 77 161 252 269
483 297 28 4 51 7 52 8 4 4 177 -3 223 -8z m-3533 -82 c331 -68 580 -322 641
-654 15 -79 7 -272 -14 -342 -3 -9 -6 -25 -8 -35 -7 -30 -45 -122 -72 -172
-121 -219 -342 -374 -583 -409 -79 -12 -262 -5 -336 12 -96 23 -237 94 -316
160 -195 160 -302 392 -300 646 1 62 3 83 18 160 8 45 7 38 22 85 95 286 315
486 606 550 84 18 251 18 342 -1z"/>
<path d="M3500 3930 c-147 -18 -257 -88 -332 -213 -56 -92 -80 -188 -77 -310
5 -242 111 -400 323 -486 89 -36 245 -20 349 37 108 58 206 192 231 314 3 13
8 34 11 48 11 49 6 196 -10 253 -66 247 -257 385 -495 357z"/>
<path d="M1748 4015 c-2 -1 -28 -5 -59 -8 -195 -21 -363 -157 -443 -359 -33
-84 -41 -129 -40 -238 0 -108 7 -151 38 -233 88 -234 303 -378 556 -372 330 8
565 271 555 620 -10 322 -235 562 -552 589 -28 2 -53 3 -55 1z"/>
</g>
</svg>
